<mxfile host="Electron" agent="Mozilla/5.0 (Windows NT 10.0; Win64; x64) AppleWebKit/537.36 (KHTML, like Gecko) draw.io/27.0.2 Chrome/134.0.6998.205 Electron/35.3.0 Safari/537.36" version="27.0.2">
  <diagram name="Page-1" id="-b5P2qeq02UAfQJGcsuQ">
    <mxGraphModel dx="1842" dy="1696" grid="1" gridSize="10" guides="1" tooltips="1" connect="1" arrows="1" fold="1" page="1" pageScale="1" pageWidth="850" pageHeight="1100" math="0" shadow="0">
      <root>
        <mxCell id="0" />
        <mxCell id="1" parent="0" />
        <mxCell id="E0qj_-bJ-azpqX24-U4d-1" value="" style="rounded=0;whiteSpace=wrap;html=1;" vertex="1" parent="1">
          <mxGeometry x="60" y="160" width="120" height="60" as="geometry" />
        </mxCell>
        <mxCell id="E0qj_-bJ-azpqX24-U4d-2" value="&lt;div style=&quot;line-height: 160%;&quot;&gt;System&lt;/div&gt;" style="text;html=1;align=center;verticalAlign=middle;whiteSpace=wrap;rounded=0;" vertex="1" parent="1">
          <mxGeometry x="90" y="175" width="60" height="30" as="geometry" />
        </mxCell>
        <mxCell id="E0qj_-bJ-azpqX24-U4d-3" value="" style="rounded=0;whiteSpace=wrap;html=1;" vertex="1" parent="1">
          <mxGeometry x="640" y="160" width="120" height="60" as="geometry" />
        </mxCell>
        <mxCell id="E0qj_-bJ-azpqX24-U4d-4" value="User" style="text;html=1;align=center;verticalAlign=middle;whiteSpace=wrap;rounded=0;" vertex="1" parent="1">
          <mxGeometry x="670" y="175" width="60" height="30" as="geometry" />
        </mxCell>
        <mxCell id="E0qj_-bJ-azpqX24-U4d-5" value="" style="rounded=0;whiteSpace=wrap;html=1;" vertex="1" parent="1">
          <mxGeometry x="60" y="470" width="120" height="60" as="geometry" />
        </mxCell>
        <mxCell id="E0qj_-bJ-azpqX24-U4d-6" value="Database" style="text;html=1;align=center;verticalAlign=middle;whiteSpace=wrap;rounded=0;" vertex="1" parent="1">
          <mxGeometry x="90" y="485" width="60" height="30" as="geometry" />
        </mxCell>
        <mxCell id="E0qj_-bJ-azpqX24-U4d-7" value="" style="rounded=0;whiteSpace=wrap;html=1;" vertex="1" parent="1">
          <mxGeometry x="60" y="-140" width="120" height="60" as="geometry" />
        </mxCell>
        <mxCell id="E0qj_-bJ-azpqX24-U4d-8" value="Ad&lt;span style=&quot;background-color: transparent; color: light-dark(rgb(0, 0, 0), rgb(255, 255, 255));&quot;&gt;min&lt;/span&gt;" style="text;html=1;align=center;verticalAlign=middle;whiteSpace=wrap;rounded=0;" vertex="1" parent="1">
          <mxGeometry x="90" y="-125" width="60" height="30" as="geometry" />
        </mxCell>
        <mxCell id="E0qj_-bJ-azpqX24-U4d-9" value="" style="endArrow=none;html=1;rounded=0;edgeStyle=orthogonalEdgeStyle;curved=1;entryX=1;entryY=0.75;entryDx=0;entryDy=0;exitX=1.007;exitY=0.367;exitDx=0;exitDy=0;exitPerimeter=0;" edge="1" parent="1" source="E0qj_-bJ-azpqX24-U4d-5" target="E0qj_-bJ-azpqX24-U4d-44">
          <mxGeometry width="50" height="50" relative="1" as="geometry">
            <mxPoint x="460" y="-250" as="sourcePoint" />
            <mxPoint x="510" y="-300" as="targetPoint" />
            <Array as="points">
              <mxPoint x="860" y="492" />
              <mxPoint x="860" y="-465" />
            </Array>
          </mxGeometry>
        </mxCell>
        <mxCell id="E0qj_-bJ-azpqX24-U4d-11" value="" style="endArrow=none;html=1;rounded=0;edgeStyle=orthogonalEdgeStyle;curved=1;entryX=0.5;entryY=1;entryDx=0;entryDy=0;exitX=0.5;exitY=0;exitDx=0;exitDy=0;" edge="1" parent="1" source="E0qj_-bJ-azpqX24-U4d-1" target="E0qj_-bJ-azpqX24-U4d-7">
          <mxGeometry width="50" height="50" relative="1" as="geometry">
            <mxPoint x="90" y="10" as="sourcePoint" />
            <mxPoint x="140" y="-40" as="targetPoint" />
            <Array as="points">
              <mxPoint x="120" y="40" />
              <mxPoint x="120" y="40" />
            </Array>
          </mxGeometry>
        </mxCell>
        <mxCell id="E0qj_-bJ-azpqX24-U4d-12" value="" style="endArrow=classic;html=1;rounded=0;" edge="1" parent="1">
          <mxGeometry width="50" height="50" relative="1" as="geometry">
            <mxPoint x="140" as="sourcePoint" />
            <mxPoint x="140" y="40" as="targetPoint" />
          </mxGeometry>
        </mxCell>
        <mxCell id="E0qj_-bJ-azpqX24-U4d-13" value="&lt;span style=&quot;text-wrap-mode: nowrap;&quot;&gt;1.1.1: submit new site settings&lt;/span&gt;" style="text;html=1;align=center;verticalAlign=middle;whiteSpace=wrap;rounded=0;" vertex="1" parent="1">
          <mxGeometry x="140" width="170" height="30" as="geometry" />
        </mxCell>
        <mxCell id="E0qj_-bJ-azpqX24-U4d-14" value="" style="endArrow=none;html=1;rounded=0;edgeStyle=orthogonalEdgeStyle;curved=1;exitX=0.75;exitY=0;exitDx=0;exitDy=0;entryX=1;entryY=0;entryDx=0;entryDy=0;" edge="1" parent="1" source="E0qj_-bJ-azpqX24-U4d-1" target="E0qj_-bJ-azpqX24-U4d-1">
          <mxGeometry width="50" height="50" relative="1" as="geometry">
            <mxPoint x="270" y="170" as="sourcePoint" />
            <mxPoint x="350" y="160" as="targetPoint" />
            <Array as="points">
              <mxPoint x="150" y="110" />
              <mxPoint x="220" y="110" />
              <mxPoint x="220" y="160" />
            </Array>
          </mxGeometry>
        </mxCell>
        <mxCell id="E0qj_-bJ-azpqX24-U4d-15" value="" style="endArrow=classic;html=1;rounded=0;" edge="1" parent="1">
          <mxGeometry width="50" height="50" relative="1" as="geometry">
            <mxPoint x="170" y="100" as="sourcePoint" />
            <mxPoint x="210" y="100" as="targetPoint" />
          </mxGeometry>
        </mxCell>
        <mxCell id="E0qj_-bJ-azpqX24-U4d-16" value="&lt;span style=&quot;text-wrap-mode: nowrap;&quot;&gt;1.1.2: validate&amp;nbsp;&lt;/span&gt;&lt;div style=&quot;text-wrap-mode: nowrap;&quot;&gt;settings format&amp;nbsp;&lt;/div&gt;&lt;div style=&quot;text-wrap-mode: nowrap;&quot;&gt;and&amp;nbsp;&lt;/div&gt;&lt;div style=&quot;text-wrap-mode: nowrap;&quot;&gt;permissions&lt;/div&gt;" style="text;html=1;align=center;verticalAlign=middle;whiteSpace=wrap;rounded=0;" vertex="1" parent="1">
          <mxGeometry x="150" y="30" width="100" height="70" as="geometry" />
        </mxCell>
        <mxCell id="E0qj_-bJ-azpqX24-U4d-17" value="" style="endArrow=none;html=1;rounded=0;edgeStyle=orthogonalEdgeStyle;curved=1;entryX=0.5;entryY=1;entryDx=0;entryDy=0;exitX=0.5;exitY=0;exitDx=0;exitDy=0;" edge="1" parent="1" source="E0qj_-bJ-azpqX24-U4d-5" target="E0qj_-bJ-azpqX24-U4d-1">
          <mxGeometry width="50" height="50" relative="1" as="geometry">
            <mxPoint x="250" y="290" as="sourcePoint" />
            <mxPoint x="300" y="240" as="targetPoint" />
          </mxGeometry>
        </mxCell>
        <mxCell id="E0qj_-bJ-azpqX24-U4d-18" value="" style="endArrow=classic;html=1;rounded=0;" edge="1" parent="1">
          <mxGeometry width="50" height="50" relative="1" as="geometry">
            <mxPoint x="130" y="320" as="sourcePoint" />
            <mxPoint x="130" y="360" as="targetPoint" />
          </mxGeometry>
        </mxCell>
        <mxCell id="E0qj_-bJ-azpqX24-U4d-19" value="&lt;span style=&quot;text-wrap-mode: nowrap;&quot;&gt;1.1.3: save settings to configuration&lt;/span&gt;" style="text;html=1;align=center;verticalAlign=middle;whiteSpace=wrap;rounded=0;" vertex="1" parent="1">
          <mxGeometry x="150" y="320" width="170" height="30" as="geometry" />
        </mxCell>
        <mxCell id="E0qj_-bJ-azpqX24-U4d-20" value="" style="endArrow=none;html=1;rounded=0;edgeStyle=orthogonalEdgeStyle;curved=1;exitX=0;exitY=0;exitDx=0;exitDy=0;entryX=0.25;entryY=1;entryDx=0;entryDy=0;" edge="1" parent="1" source="E0qj_-bJ-azpqX24-U4d-5" target="E0qj_-bJ-azpqX24-U4d-7">
          <mxGeometry width="50" height="50" relative="1" as="geometry">
            <mxPoint x="50" y="470" as="sourcePoint" />
            <mxPoint x="50" y="-30" as="targetPoint" />
            <Array as="points">
              <mxPoint x="-170" y="470" />
              <mxPoint x="-170" y="-80" />
            </Array>
          </mxGeometry>
        </mxCell>
        <mxCell id="E0qj_-bJ-azpqX24-U4d-21" value="" style="endArrow=classic;html=1;rounded=0;" edge="1" parent="1">
          <mxGeometry width="50" height="50" relative="1" as="geometry">
            <mxPoint x="-160" y="215" as="sourcePoint" />
            <mxPoint x="-160" y="175" as="targetPoint" />
          </mxGeometry>
        </mxCell>
        <mxCell id="E0qj_-bJ-azpqX24-U4d-22" value="&lt;span style=&quot;text-wrap-mode: nowrap;&quot;&gt;1.1.4: settings updated successfully&lt;/span&gt;" style="text;html=1;align=center;verticalAlign=middle;whiteSpace=wrap;rounded=0;" vertex="1" parent="1">
          <mxGeometry x="-140" y="175" width="170" height="30" as="geometry" />
        </mxCell>
        <mxCell id="E0qj_-bJ-azpqX24-U4d-23" value="" style="endArrow=none;html=1;rounded=0;edgeStyle=orthogonalEdgeStyle;curved=1;entryX=0;entryY=0.5;entryDx=0;entryDy=0;exitX=1;exitY=0.5;exitDx=0;exitDy=0;" edge="1" parent="1" source="E0qj_-bJ-azpqX24-U4d-1" target="E0qj_-bJ-azpqX24-U4d-3">
          <mxGeometry width="50" height="50" relative="1" as="geometry">
            <mxPoint x="480" y="190" as="sourcePoint" />
            <mxPoint x="530" y="140" as="targetPoint" />
          </mxGeometry>
        </mxCell>
        <mxCell id="E0qj_-bJ-azpqX24-U4d-24" value="" style="endArrow=classic;html=1;rounded=0;" edge="1" parent="1">
          <mxGeometry width="50" height="50" relative="1" as="geometry">
            <mxPoint x="440" y="180" as="sourcePoint" />
            <mxPoint x="390" y="180" as="targetPoint" />
          </mxGeometry>
        </mxCell>
        <mxCell id="E0qj_-bJ-azpqX24-U4d-25" value="&lt;span style=&quot;text-wrap-mode: nowrap;&quot;&gt;2.1.1: submit new privacy settings&lt;/span&gt;" style="text;html=1;align=center;verticalAlign=middle;whiteSpace=wrap;rounded=0;" vertex="1" parent="1">
          <mxGeometry x="340" y="145" width="160" height="30" as="geometry" />
        </mxCell>
        <mxCell id="E0qj_-bJ-azpqX24-U4d-26" value="" style="endArrow=none;html=1;rounded=0;edgeStyle=orthogonalEdgeStyle;curved=1;entryX=1;entryY=0.75;entryDx=0;entryDy=0;exitX=1;exitY=1;exitDx=0;exitDy=0;" edge="1" parent="1" source="E0qj_-bJ-azpqX24-U4d-1" target="E0qj_-bJ-azpqX24-U4d-1">
          <mxGeometry width="50" height="50" relative="1" as="geometry">
            <mxPoint x="189.75" y="270" as="sourcePoint" />
            <mxPoint x="239.75" y="220" as="targetPoint" />
            <Array as="points">
              <mxPoint x="180" y="250" />
              <mxPoint x="250" y="250" />
              <mxPoint x="250" y="205" />
            </Array>
          </mxGeometry>
        </mxCell>
        <mxCell id="E0qj_-bJ-azpqX24-U4d-27" value="" style="endArrow=classic;html=1;rounded=0;" edge="1" parent="1">
          <mxGeometry width="50" height="50" relative="1" as="geometry">
            <mxPoint x="260" y="205" as="sourcePoint" />
            <mxPoint x="260" y="245" as="targetPoint" />
          </mxGeometry>
        </mxCell>
        <mxCell id="E0qj_-bJ-azpqX24-U4d-28" value="&lt;span style=&quot;text-wrap-mode: nowrap;&quot;&gt;2.1.2: validate settings&amp;nbsp;&lt;/span&gt;&lt;div style=&quot;text-wrap-mode: nowrap;&quot;&gt;format&lt;/div&gt;" style="text;html=1;align=center;verticalAlign=middle;whiteSpace=wrap;rounded=0;" vertex="1" parent="1">
          <mxGeometry x="270" y="210" width="110" height="30" as="geometry" />
        </mxCell>
        <mxCell id="E0qj_-bJ-azpqX24-U4d-30" value="" style="endArrow=none;html=1;rounded=0;edgeStyle=orthogonalEdgeStyle;curved=1;exitX=0.75;exitY=0;exitDx=0;exitDy=0;entryX=0.25;entryY=1;entryDx=0;entryDy=0;" edge="1" parent="1" source="E0qj_-bJ-azpqX24-U4d-5" target="E0qj_-bJ-azpqX24-U4d-3">
          <mxGeometry width="50" height="50" relative="1" as="geometry">
            <mxPoint x="360" y="340" as="sourcePoint" />
            <mxPoint x="410" y="290" as="targetPoint" />
          </mxGeometry>
        </mxCell>
        <mxCell id="E0qj_-bJ-azpqX24-U4d-31" value="" style="endArrow=classic;html=1;rounded=0;" edge="1" parent="1">
          <mxGeometry width="50" height="50" relative="1" as="geometry">
            <mxPoint x="385" y="370" as="sourcePoint" />
            <mxPoint x="455" y="370" as="targetPoint" />
          </mxGeometry>
        </mxCell>
        <mxCell id="E0qj_-bJ-azpqX24-U4d-32" value="&lt;span style=&quot;text-wrap-mode: nowrap;&quot;&gt;settings updated successfully&lt;/span&gt;" style="text;html=1;align=center;verticalAlign=middle;whiteSpace=wrap;rounded=0;" vertex="1" parent="1">
          <mxGeometry x="340" y="380" width="170" height="30" as="geometry" />
        </mxCell>
        <mxCell id="E0qj_-bJ-azpqX24-U4d-33" value="" style="endArrow=none;html=1;rounded=0;edgeStyle=orthogonalEdgeStyle;curved=1;entryX=0.25;entryY=1;entryDx=0;entryDy=0;exitX=0.25;exitY=0;exitDx=0;exitDy=0;" edge="1" parent="1" source="E0qj_-bJ-azpqX24-U4d-5" target="E0qj_-bJ-azpqX24-U4d-1">
          <mxGeometry width="50" height="50" relative="1" as="geometry">
            <mxPoint x="-60" y="359.75" as="sourcePoint" />
            <mxPoint x="-10" y="309.75" as="targetPoint" />
          </mxGeometry>
        </mxCell>
        <mxCell id="E0qj_-bJ-azpqX24-U4d-34" value="" style="endArrow=classic;html=1;rounded=0;" edge="1" parent="1">
          <mxGeometry width="50" height="50" relative="1" as="geometry">
            <mxPoint x="80" y="315" as="sourcePoint" />
            <mxPoint x="80" y="355" as="targetPoint" />
          </mxGeometry>
        </mxCell>
        <mxCell id="E0qj_-bJ-azpqX24-U4d-35" value="&lt;span style=&quot;text-wrap-mode: nowrap;&quot;&gt;2.1.3: update user&#39;s privacy settings&lt;/span&gt;" style="text;html=1;align=center;verticalAlign=middle;whiteSpace=wrap;rounded=0;" vertex="1" parent="1">
          <mxGeometry x="-110" y="320" width="170" height="30" as="geometry" />
        </mxCell>
        <mxCell id="E0qj_-bJ-azpqX24-U4d-36" style="edgeStyle=orthogonalEdgeStyle;rounded=0;orthogonalLoop=1;jettySize=auto;html=1;exitX=0.5;exitY=1;exitDx=0;exitDy=0;" edge="1" parent="1" source="E0qj_-bJ-azpqX24-U4d-35" target="E0qj_-bJ-azpqX24-U4d-35">
          <mxGeometry relative="1" as="geometry" />
        </mxCell>
        <mxCell id="E0qj_-bJ-azpqX24-U4d-37" value="" style="endArrow=none;html=1;rounded=0;edgeStyle=orthogonalEdgeStyle;curved=1;entryX=0.25;entryY=1;entryDx=0;entryDy=0;exitX=0.25;exitY=0;exitDx=0;exitDy=0;" edge="1" parent="1" source="E0qj_-bJ-azpqX24-U4d-1" target="E0qj_-bJ-azpqX24-U4d-7">
          <mxGeometry width="50" height="50" relative="1" as="geometry">
            <mxPoint y="90" as="sourcePoint" />
            <mxPoint x="70" y="-40" as="targetPoint" />
          </mxGeometry>
        </mxCell>
        <mxCell id="E0qj_-bJ-azpqX24-U4d-38" value="" style="endArrow=classic;html=1;rounded=0;" edge="1" parent="1">
          <mxGeometry width="50" height="50" relative="1" as="geometry">
            <mxPoint x="80" y="5" as="sourcePoint" />
            <mxPoint x="80" y="45" as="targetPoint" />
          </mxGeometry>
        </mxCell>
        <mxCell id="E0qj_-bJ-azpqX24-U4d-39" value="&lt;span style=&quot;text-wrap-mode: nowrap;&quot;&gt;3.1.1: view reported content list&lt;/span&gt;" style="text;html=1;align=center;verticalAlign=middle;whiteSpace=wrap;rounded=0;" vertex="1" parent="1">
          <mxGeometry x="-80" y="10" width="140" height="30" as="geometry" />
        </mxCell>
        <mxCell id="E0qj_-bJ-azpqX24-U4d-41" value="" style="endArrow=none;html=1;rounded=0;edgeStyle=orthogonalEdgeStyle;curved=1;exitX=-0.033;exitY=0.38;exitDx=0;exitDy=0;exitPerimeter=0;entryX=0;entryY=0.5;entryDx=0;entryDy=0;" edge="1" parent="1" source="E0qj_-bJ-azpqX24-U4d-5" target="E0qj_-bJ-azpqX24-U4d-7">
          <mxGeometry width="50" height="50" relative="1" as="geometry">
            <mxPoint x="-280" y="174.5" as="sourcePoint" />
            <mxPoint x="-230" y="124.5" as="targetPoint" />
            <Array as="points">
              <mxPoint x="-210" y="493" />
              <mxPoint x="-210" y="-110" />
            </Array>
          </mxGeometry>
        </mxCell>
        <mxCell id="E0qj_-bJ-azpqX24-U4d-42" value="" style="endArrow=classic;html=1;rounded=0;" edge="1" parent="1">
          <mxGeometry width="50" height="50" relative="1" as="geometry">
            <mxPoint x="-220" y="215" as="sourcePoint" />
            <mxPoint x="-220" y="175" as="targetPoint" />
          </mxGeometry>
        </mxCell>
        <mxCell id="E0qj_-bJ-azpqX24-U4d-43" value="&lt;span style=&quot;text-wrap-mode: nowrap;&quot;&gt;2.1.4: settings updated successfully&lt;/span&gt;" style="text;html=1;align=center;verticalAlign=middle;whiteSpace=wrap;rounded=0;" vertex="1" parent="1">
          <mxGeometry x="-400" y="175" width="170" height="30" as="geometry" />
        </mxCell>
        <mxCell id="E0qj_-bJ-azpqX24-U4d-44" value="" style="rounded=0;whiteSpace=wrap;html=1;" vertex="1" parent="1">
          <mxGeometry x="60" y="-510" width="120" height="60" as="geometry" />
        </mxCell>
        <mxCell id="E0qj_-bJ-azpqX24-U4d-45" value="System" style="text;html=1;align=center;verticalAlign=middle;whiteSpace=wrap;rounded=0;" vertex="1" parent="1">
          <mxGeometry x="90" y="-495" width="60" height="30" as="geometry" />
        </mxCell>
        <mxCell id="E0qj_-bJ-azpqX24-U4d-46" value="" style="endArrow=none;html=1;rounded=0;edgeStyle=orthogonalEdgeStyle;curved=1;exitX=0.5;exitY=0;exitDx=0;exitDy=0;entryX=0.5;entryY=1;entryDx=0;entryDy=0;" edge="1" parent="1" source="E0qj_-bJ-azpqX24-U4d-7" target="E0qj_-bJ-azpqX24-U4d-44">
          <mxGeometry width="50" height="50" relative="1" as="geometry">
            <mxPoint x="470" y="-240" as="sourcePoint" />
            <mxPoint x="520" y="-290" as="targetPoint" />
          </mxGeometry>
        </mxCell>
        <mxCell id="E0qj_-bJ-azpqX24-U4d-47" value="" style="endArrow=classic;html=1;rounded=0;" edge="1" parent="1">
          <mxGeometry width="50" height="50" relative="1" as="geometry">
            <mxPoint x="130" y="-250" as="sourcePoint" />
            <mxPoint x="130" y="-290" as="targetPoint" />
          </mxGeometry>
        </mxCell>
        <mxCell id="E0qj_-bJ-azpqX24-U4d-48" value="&lt;span style=&quot;text-wrap-mode: nowrap;&quot;&gt;3.1.3: take action&lt;/span&gt;" style="text;html=1;align=center;verticalAlign=middle;whiteSpace=wrap;rounded=0;" vertex="1" parent="1">
          <mxGeometry x="140" y="-290" width="80" height="30" as="geometry" />
        </mxCell>
        <mxCell id="E0qj_-bJ-azpqX24-U4d-50" value="" style="endArrow=none;html=1;rounded=0;edgeStyle=orthogonalEdgeStyle;curved=1;exitX=1;exitY=1;exitDx=0;exitDy=0;entryX=0.75;entryY=1;entryDx=0;entryDy=0;" edge="1" parent="1" source="E0qj_-bJ-azpqX24-U4d-44" target="E0qj_-bJ-azpqX24-U4d-44">
          <mxGeometry width="50" height="50" relative="1" as="geometry">
            <mxPoint x="240" y="-420" as="sourcePoint" />
            <mxPoint x="270" y="-420" as="targetPoint" />
            <Array as="points">
              <mxPoint x="180" y="-390" />
              <mxPoint x="140" y="-390" />
              <mxPoint x="140" y="-450" />
            </Array>
          </mxGeometry>
        </mxCell>
        <mxCell id="E0qj_-bJ-azpqX24-U4d-51" value="" style="endArrow=classic;html=1;rounded=0;" edge="1" parent="1">
          <mxGeometry width="50" height="50" relative="1" as="geometry">
            <mxPoint x="150" y="-380" as="sourcePoint" />
            <mxPoint x="180" y="-380" as="targetPoint" />
          </mxGeometry>
        </mxCell>
        <mxCell id="E0qj_-bJ-azpqX24-U4d-52" value="&lt;span style=&quot;text-wrap-mode: nowrap;&quot;&gt;3.1.4: apply action&lt;/span&gt;" style="text;html=1;align=center;verticalAlign=middle;whiteSpace=wrap;rounded=0;" vertex="1" parent="1">
          <mxGeometry x="140" y="-380" width="70" height="30" as="geometry" />
        </mxCell>
        <mxCell id="E0qj_-bJ-azpqX24-U4d-53" value="" style="endArrow=none;html=1;rounded=0;edgeStyle=orthogonalEdgeStyle;curved=1;entryX=0.25;entryY=1;entryDx=0;entryDy=0;exitX=0.25;exitY=0;exitDx=0;exitDy=0;" edge="1" parent="1" source="E0qj_-bJ-azpqX24-U4d-7" target="E0qj_-bJ-azpqX24-U4d-44">
          <mxGeometry width="50" height="50" relative="1" as="geometry">
            <mxPoint x="470" y="-240" as="sourcePoint" />
            <mxPoint x="520" y="-290" as="targetPoint" />
          </mxGeometry>
        </mxCell>
        <mxCell id="E0qj_-bJ-azpqX24-U4d-54" value="" style="endArrow=classic;html=1;rounded=0;" edge="1" parent="1">
          <mxGeometry width="50" height="50" relative="1" as="geometry">
            <mxPoint x="79" y="-290" as="sourcePoint" />
            <mxPoint x="79" y="-250" as="targetPoint" />
          </mxGeometry>
        </mxCell>
        <mxCell id="E0qj_-bJ-azpqX24-U4d-55" value="&lt;span style=&quot;text-wrap-mode: nowrap;&quot;&gt;3.1.6: action comleted&lt;/span&gt;" style="text;html=1;align=center;verticalAlign=middle;whiteSpace=wrap;rounded=0;" vertex="1" parent="1">
          <mxGeometry x="-40" y="-280" width="100" height="30" as="geometry" />
        </mxCell>
        <mxCell id="E0qj_-bJ-azpqX24-U4d-56" value="" style="endArrow=none;html=1;rounded=0;edgeStyle=orthogonalEdgeStyle;curved=1;entryX=0;entryY=1;entryDx=0;entryDy=0;exitX=0;exitY=0.75;exitDx=0;exitDy=0;" edge="1" parent="1" source="E0qj_-bJ-azpqX24-U4d-5" target="E0qj_-bJ-azpqX24-U4d-44">
          <mxGeometry width="50" height="50" relative="1" as="geometry">
            <mxPoint x="-180" y="-180" as="sourcePoint" />
            <mxPoint x="-70.5" y="-390.25" as="targetPoint" />
            <Array as="points">
              <mxPoint x="-420" y="515" />
              <mxPoint x="-420" y="-450" />
            </Array>
          </mxGeometry>
        </mxCell>
        <mxCell id="E0qj_-bJ-azpqX24-U4d-57" value="" style="endArrow=classic;html=1;rounded=0;" edge="1" parent="1">
          <mxGeometry width="50" height="50" relative="1" as="geometry">
            <mxPoint x="-431" y="-20" as="sourcePoint" />
            <mxPoint x="-431" y="20" as="targetPoint" />
          </mxGeometry>
        </mxCell>
        <mxCell id="E0qj_-bJ-azpqX24-U4d-58" value="&lt;span style=&quot;text-wrap-mode: nowrap;&quot;&gt;3.1.2: bring all pending reports&lt;/span&gt;" style="text;html=1;align=center;verticalAlign=middle;whiteSpace=wrap;rounded=0;" vertex="1" parent="1">
          <mxGeometry x="-590" y="-10" width="150" height="30" as="geometry" />
        </mxCell>
        <mxCell id="E0qj_-bJ-azpqX24-U4d-59" value="" style="endArrow=classic;html=1;rounded=0;" edge="1" parent="1">
          <mxGeometry width="50" height="50" relative="1" as="geometry">
            <mxPoint x="839" y="-15" as="sourcePoint" />
            <mxPoint x="839" y="25" as="targetPoint" />
          </mxGeometry>
        </mxCell>
        <mxCell id="E0qj_-bJ-azpqX24-U4d-60" value="&lt;span style=&quot;text-wrap-mode: nowrap;&quot;&gt;3.1.5: update report status&lt;/span&gt;" style="text;html=1;align=center;verticalAlign=middle;whiteSpace=wrap;rounded=0;" vertex="1" parent="1">
          <mxGeometry x="700" y="-5" width="130" height="30" as="geometry" />
        </mxCell>
      </root>
    </mxGraphModel>
  </diagram>
</mxfile>
